#N canvas 1020 50 786 851 12;
#X obj 17 12 inlet;
#X obj 17 359 translateXYZ, f 20;
#X floatatom 76 440 5 0 0 0 - - - 0;
#X msg 28 414 draw line;
#X floatatom 62 337 5 0 0 0 - - - 0;
#X floatatom 108 337 5 0 0 0 - - - 0;
#X floatatom 155 337 5 0 0 0 - - - 0;
#X floatatom 62 147 5 0 0 0 - - - 0;
#X floatatom 108 147 5 0 0 0 - - - 0;
#X floatatom 155 147 5 0 0 0 - - - 0;
#X obj 17 169 rotateXYZ, f 20;
#X obj 28 388 loadbang;
#X obj 60 12 inlet;
#N canvas 795 118 450 299 counter 0;
#X obj 7 74 f 1;
#X obj 42 74 + 1;
#X obj 8 29 tgl 19 0 empty empty empty 0 -10 0 12 #fcfcfc #000000 #000000 0 1;
#X obj 8 51 metro 30;
#X floatatom 71 51 5 0 0 0 - - - 0;
#X obj 7 6 inlet;
#X obj 7 99 outlet;
#X connect 0 0 1 0;
#X connect 0 0 6 0;
#X connect 1 0 0 1;
#X connect 2 0 3 0;
#X connect 3 0 0 0;
#X connect 4 0 3 1;
#X connect 5 0 2 0;
#X connect 5 0 4 0;
#X restore 59 65 pd counter;
#N canvas 795 118 450 299 counter 0;
#X obj 7 74 f 1;
#X obj 42 74 + 1;
#X obj 8 29 tgl 19 0 empty empty empty 0 -10 0 12 #fcfcfc #000000 #000000 0 1;
#X obj 8 51 metro 30;
#X floatatom 71 51 5 0 0 0 - - - 0;
#X obj 7 6 inlet;
#X obj 7 99 outlet;
#X connect 0 0 1 0;
#X connect 0 0 6 0;
#X connect 1 0 0 1;
#X connect 2 0 3 0;
#X connect 3 0 0 0;
#X connect 4 0 3 1;
#X connect 5 0 2 0;
#X connect 5 0 4 0;
#X restore 75 94 pd counter;
#N canvas 795 118 450 299 counter 0;
#X obj 7 74 f 1;
#X obj 42 74 + 1;
#X obj 8 29 tgl 19 0 empty empty empty 0 -10 0 12 #fcfcfc #000000 #000000 0 1;
#X obj 8 51 metro 30;
#X floatatom 71 51 5 0 0 0 - - - 0;
#X obj 7 6 inlet;
#X obj 7 99 outlet;
#X connect 0 0 1 0;
#X connect 0 0 6 0;
#X connect 1 0 0 1;
#X connect 2 0 3 0;
#X connect 3 0 0 0;
#X connect 4 0 3 1;
#X connect 5 0 2 0;
#X connect 5 0 4 0;
#X restore 107 122 pd counter;
#X obj 63 313 % 11;
#N canvas 795 118 450 299 counter 0;
#X obj 7 74 f 1;
#X obj 42 74 + 1;
#X obj 8 29 tgl 19 0 empty empty empty 0 -10 0 12 #fcfcfc #000000 #000000 0 1;
#X obj 8 51 metro 30;
#X floatatom 71 51 5 0 0 0 - - - 0;
#X obj 7 6 inlet;
#X obj 7 99 outlet;
#X connect 0 0 1 0;
#X connect 0 0 6 0;
#X connect 1 0 0 1;
#X connect 2 0 3 0;
#X connect 3 0 0 0;
#X connect 4 0 3 1;
#X connect 5 0 2 0;
#X connect 5 0 4 0;
#X restore 48 224 pd counter;
#N canvas 795 118 450 299 counter 0;
#X obj 7 74 f 1;
#X obj 42 74 + 1;
#X obj 8 29 tgl 19 0 empty empty empty 0 -10 0 12 #fcfcfc #000000 #000000 0 1;
#X obj 8 51 metro 30;
#X floatatom 71 51 5 0 0 0 - - - 0;
#X obj 7 6 inlet;
#X obj 7 99 outlet;
#X connect 0 0 1 0;
#X connect 0 0 6 0;
#X connect 1 0 0 1;
#X connect 2 0 3 0;
#X connect 3 0 0 0;
#X connect 4 0 3 1;
#X connect 5 0 2 0;
#X connect 5 0 4 0;
#X restore 64 253 pd counter;
#N canvas 795 118 450 299 counter 0;
#X obj 7 74 f 1;
#X obj 42 74 + 1;
#X obj 8 29 tgl 19 0 empty empty empty 0 -10 0 12 #fcfcfc #000000 #000000 0 1;
#X obj 8 51 metro 30;
#X floatatom 71 51 5 0 0 0 - - - 0;
#X obj 7 6 inlet;
#X obj 7 99 outlet;
#X connect 0 0 1 0;
#X connect 0 0 6 0;
#X connect 1 0 0 1;
#X connect 2 0 3 0;
#X connect 3 0 0 0;
#X connect 4 0 3 1;
#X connect 5 0 2 0;
#X connect 5 0 4 0;
#X restore 96 281 pd counter;
#X obj 110 312 % 11;
#X obj 156 312 % 11;
#X obj 60 36 route spinX spinY spinZ size spin reset;
#X msg 260 68 0;
#X obj 17 439 cube 1;
#X msg 105 415 draw fill;
#X obj 49 195 route moveX moveY moveZ range move line fill;
#X connect 0 0 10 0;
#X connect 1 0 24 0;
#X connect 2 0 24 1;
#X connect 3 0 24 0;
#X connect 4 0 1 1;
#X connect 5 0 1 2;
#X connect 6 0 1 3;
#X connect 7 0 10 1;
#X connect 8 0 10 2;
#X connect 9 0 10 3;
#X connect 10 0 1 0;
#X connect 11 0 3 0;
#X connect 12 0 22 0;
#X connect 12 0 26 0;
#X connect 13 0 7 0;
#X connect 14 0 8 0;
#X connect 15 0 9 0;
#X connect 16 0 4 0;
#X connect 17 0 16 0;
#X connect 18 0 20 0;
#X connect 19 0 21 0;
#X connect 20 0 5 0;
#X connect 21 0 6 0;
#X connect 22 0 13 0;
#X connect 22 1 14 0;
#X connect 22 2 15 0;
#X connect 22 3 2 0;
#X connect 22 4 13 0;
#X connect 22 4 14 0;
#X connect 22 4 15 0;
#X connect 22 5 23 0;
#X connect 23 0 13 0;
#X connect 23 0 14 0;
#X connect 23 0 15 0;
#X connect 23 0 7 0;
#X connect 23 0 8 0;
#X connect 23 0 9 0;
#X connect 23 0 17 0;
#X connect 23 0 18 0;
#X connect 23 0 19 0;
#X connect 25 0 24 0;
#X connect 26 0 17 0;
#X connect 26 1 18 0;
#X connect 26 2 19 0;
#X connect 26 3 16 1;
#X connect 26 3 20 1;
#X connect 26 3 21 1;
#X connect 26 4 17 0;
#X connect 26 4 18 0;
#X connect 26 4 19 0;
#X connect 26 5 3 0;
#X connect 26 6 25 0;
