#N canvas 490 35 810 711 12;
#X declare -path ./audio/instruments;
#X declare -path ./audio/objects;
#X declare -path ./visuals/objects;
#X declare -lib Gem;
#X declare -lib Gem;
#N canvas -25 145 920 772 gemwin 0;
#X obj 99 257 gemwin;
#X obj 67 89 outlet;
#X obj 67 10 inlet;
#X obj 67 41 route create;
#X msg 67 70 set destroy;
#X msg 182 68 set create;
#X msg 132 112 create \, 1;
#X msg 238 112 destroy;
#N canvas 87 154 246 179 Gem.init 0;
#X obj 59 26 loadbang;
#X msg 118 81 reset;
#X obj 118 113 outlet;
#X obj 59 45 t b b;
#X connect 0 0 3 0;
#X connect 1 0 2 0;
#X connect 3 1 1 0;
#X restore 289 80 pd Gem.init;
#X obj 233 173 loadbang;
#X msg 232 213 lighting 1;
#X connect 2 0 3 0;
#X connect 3 0 4 0;
#X connect 3 0 6 0;
#X connect 3 1 5 0;
#X connect 3 1 7 0;
#X connect 4 0 1 0;
#X connect 5 0 1 0;
#X connect 6 0 0 0;
#X connect 7 0 0 0;
#X connect 8 0 0 0;
#X connect 9 0 10 0;
#X connect 10 0 0 0;
#X restore 465 35 pd gemwin;
#X msg 465 11 destroy;
#X obj 6 7 netreceive -u 6000;
#X text 374 513 pdsend 6000 localhost udp;
#X obj 40 118 s message;
#X msg 78 81 puzzle 2;
#X msg 78 56 puzzle \$1;
#X floatatom 78 33 5 0 0 0 - - - 0;
#N canvas 1094 570 450 299 imports 0;
#X obj 9 9 declare -path ./audio/instruments;
#X obj 9 31 declare -path ./audio/objects;
#X obj 8 54 declare -path ./visuals/objects;
#X obj 8 76 declare -lib Gem;
#X restore 464 58 pd imports;
#N canvas 515 2 1070 944 main-visuals 0;
#X obj 7 8 inlet;
#N canvas 1070 0 850 539 main-scene 0;
#X obj 8 81 gemframebuffer;
#X obj 8 127 t a a b;
#X obj 8 104 translateXYZ 0 0 -4;
#X obj 89 36 loadbang;
#X obj 6 9 declare -lib Gem;
#X obj 8 151 t a b;
#X msg 69 262 snap;
#X obj 8 314 t a b;
#X msg 188 328 1;
#X obj 8 350 pix_buffer_write \$0-framebuffer;
#X obj 119 263 outlet;
#X obj 214 58 t a b;
#X msg 391 59 1;
#X obj 214 80 pix_buffer_read \$0-framebuffer;
#X obj 216 104 outlet;
#X obj 129 8 inlet;
#X obj 214 169 pix_texture;
#X obj 213 141 r m-vj-out;
#X obj 213 226 rectangle 7.12 4.07;
#X floatatom 279 204 5 0 0 0 - - - 0;
#X floatatom 343 203 5 0 0 0 - - - 0;
#X floatatom 141 78 5 0 0 0 - - - 0;
#X text 216 283 We want to have a 3D scene \, video's playing behind it and to apply video effects to the output. This is achieved using pix_snap THank you hellocatfood for your patch that I used for inspiration!;
#X obj 8 375 pix_buffer \$0-framebuffer 2;
#X obj 8 57 gemhead 20;
#X obj 214 33 gemhead 30;
#X msg 89 56 dimen 1024 768;
#X obj 8 290 pix_snap 0 0 1024 768;
#X obj 532 202 world_light 1;
#X connect 0 0 2 0;
#X connect 1 0 5 0;
#X connect 1 1 10 0;
#X connect 1 1 28 0;
#X connect 2 0 1 0;
#X connect 3 0 26 0;
#X connect 5 0 27 0;
#X connect 5 1 6 0;
#X connect 6 0 27 0;
#X connect 7 0 9 0;
#X connect 7 1 8 0;
#X connect 8 0 9 1;
#X connect 11 0 13 0;
#X connect 11 1 12 0;
#X connect 12 0 13 1;
#X connect 13 0 14 0;
#X connect 15 0 24 0;
#X connect 15 0 25 0;
#X connect 16 0 18 0;
#X connect 17 0 16 0;
#X connect 19 0 18 1;
#X connect 20 0 18 2;
#X connect 21 0 2 3;
#X connect 24 0 0 0;
#X connect 25 0 11 0;
#X connect 26 0 0 0;
#X connect 27 0 7 0;
#X restore 162 103 pd main-scene;
#X f 14;
#X obj 156 246 separator;
#N canvas -25 200 960 944 newWave 0;
#X obj 40 24 inlet;
#X floatatom 143 479 5 0 0 2 size - - 0;
#X floatatom 144 508 5 0 0 2 height - - 0;
#X floatatom 80 75 5 0 0 0 - - - 0;
#X msg 74 205 draw line;
#X msg 74 225 draw fill;
#X msg 74 245 draw point;
#X obj 116 287 vradio 11 1 0 11 empty empty action -10 -6 0 8 #fcfcfc #000000 #000000 0;
#X floatatom 177 191 5 0 100 0 - - - 0;
#X obj 177 209 / 100;
#X msg 177 228 K1 \$1;
#X obj 45 492 t a b;
#X floatatom 177 251 5 0 100 0 - - - 0;
#X obj 177 269 / 100;
#X floatatom 177 311 5 0 100 0 - - - 0;
#X obj 177 329 / 100;
#X floatatom 227 191 5 0 100 0 - - - 0;
#X obj 227 209 / 100;
#X floatatom 227 251 5 0 100 0 - - - 0;
#X obj 227 269 / 100;
#X floatatom 227 311 5 0 100 0 - - - 0;
#X obj 227 329 / 100;
#X msg 227 228 D1 \$1;
#X msg 227 288 D2 \$1;
#X msg 227 348 D3 \$1;
#X msg 177 348 K3 \$1;
#X msg 177 288 K2 \$1;
#X obj 146 305 t a;
#X obj 146 245 t a;
#X obj 146 365 t a;
#X msg 339 302 position 1 1 10;
#X msg 337 348 noise 1;
#X obj 44 527 newWave 30 10;
#X msg 53 179 texture 0;
#X msg 324 405 force 15 5 -0.5;
#X obj 48 94 rotateXYZ 135 0 0;
#X floatatom 110 71 5 0 0 0 - - - 0;
#X obj 46 53 translateXYZ;
#X floatatom 140 75 5 0 0 0 - - - 0;
#X floatatom 79 24 5 0 0 0 - - - 0;
#X floatatom 109 20 5 0 0 0 - - - 0;
#X floatatom 139 24 5 0 0 0 - - - 0;
#X obj 223 18 tgl 15 0 empty empty empty 17 7 0 10 #fcfcfc #000000 #000000 0 1;
#X obj 223 67 i 0;
#X obj 251 66 + 1;
#X floatatom 223 87 5 0 0 0 - - - 0;
#X obj 252 119 / 2;
#X obj 253 140 % 100;
#X obj 223 41 metro 40;
#X obj 333 11 loadbang;
#X obj 97 -15 unpack 0 0 0 0 0 0 0;
#X obj 319 108 random 100;
#X obj 310 77 b;
#X obj 319 148 sel 1;
#X obj 321 174 bng 15 250 50 0 empty empty empty 17 7 0 10 #fcfcfc #000000 #000000;
#X obj 319 128 > 98;
#X obj 303 252 random 9;
#X msg 335 33 -2 -2 -1 12 -23 3 14;
#X obj 404 204 inlet;
#X connect 0 0 37 0;
#X connect 1 0 32 1;
#X connect 2 0 32 2;
#X connect 3 0 35 1;
#X connect 4 0 32 0;
#X connect 5 0 32 0;
#X connect 6 0 32 0;
#X connect 7 0 32 3;
#X connect 8 0 9 0;
#X connect 9 0 10 0;
#X connect 10 0 28 0;
#X connect 11 0 32 0;
#X connect 11 1 32 0;
#X connect 12 0 13 0;
#X connect 13 0 26 0;
#X connect 14 0 15 0;
#X connect 15 0 25 0;
#X connect 16 0 17 0;
#X connect 17 0 22 0;
#X connect 18 0 19 0;
#X connect 19 0 23 0;
#X connect 20 0 21 0;
#X connect 21 0 24 0;
#X connect 22 0 28 0;
#X connect 23 0 27 0;
#X connect 24 0 29 0;
#X connect 25 0 29 0;
#X connect 26 0 27 0;
#X connect 27 0 29 0;
#X connect 28 0 27 0;
#X connect 29 0 32 0;
#X connect 30 0 32 0;
#X connect 31 0 32 0;
#X connect 33 0 32 0;
#X connect 34 0 32 0;
#X connect 35 0 11 0;
#X connect 36 0 35 2;
#X connect 37 0 35 0;
#X connect 38 0 35 3;
#X connect 39 0 37 1;
#X connect 40 0 37 2;
#X connect 41 0 37 3;
#X connect 42 0 48 0;
#X connect 43 0 44 0;
#X connect 43 0 45 0;
#X connect 44 0 43 1;
#X connect 45 0 46 0;
#X connect 45 0 52 0;
#X connect 46 0 47 0;
#X connect 47 0 38 0;
#X connect 48 0 43 0;
#X connect 49 0 42 0;
#X connect 49 0 57 0;
#X connect 49 0 4 0;
#X connect 50 0 39 0;
#X connect 50 1 40 0;
#X connect 50 2 41 0;
#X connect 50 3 3 0;
#X connect 50 4 36 0;
#X connect 50 5 1 0;
#X connect 50 6 2 0;
#X connect 51 0 55 0;
#X connect 52 0 51 0;
#X connect 53 0 54 0;
#X connect 54 0 56 0;
#X connect 55 0 53 0;
#X connect 57 0 50 0;
#X connect 58 0 31 0;
#X restore 156 270 pd newWave;
#X obj 339 452 s m-vj-out;
#N canvas 835 218 632 504 puzzle 0;
#X obj 24 14 inlet;
#X obj 24 190 outlet;
#X obj 78 41 route puzzle;
#X obj 24 128 pix_puzzle;
#X msg 77 68 size \$1 \$1;
#X obj 78 14 r message;
#X connect 0 0 3 0;
#X connect 2 0 4 0;
#X connect 3 0 1 0;
#X connect 4 0 3 0;
#X connect 5 0 2 0;
#X restore 374 291 pd puzzle;
#X obj 655 42 r message;
#X obj 656 65 route c1;
#X floatatom 36 189 5 0 0 0 - - - 0;
#X obj 22 129 route v;
#X obj 109 359 tgl 19 0 empty empty empty 0 -10 0 12 #fcfcfc #000000 #000000 0 1;
#X obj 108 337 route video;
#X obj 94 299 separator;
#X obj 558 55 separator;
#X obj 230 248 bng 19 250 50 0 empty empty empty 0 -10 0 12 #fcfcfc #000000 #000000;
#X obj 34 56 loadbang;
#X msg 34 81 0;
#X obj 349 211 pix_yuv 1;
#N canvas 350 323 637 494 refraction 0;
#X obj 22 -44 inlet;
#X obj 26 219 outlet;
#X floatatom 64 104 3 0.01 16 1 - - - 0;
#X msg 64 122 refract \$1;
#X msg 144 122 mag \$1;
#X floatatom 64 64 3 0 0 1 - - - 0;
#X floatatom 144 64 3 0 0 1 - - - 0;
#X msg 64 82 width \$1;
#X msg 144 82 height \$1;
#X obj 51 153 pix_refraction;
#X obj 144 103 tgl 15 0 empty empty empty 0 -6 0 8 #fcfcfc #000000 #000000 0 1;
#X obj 64 34 unpack 0 0 0 0;
#X obj 65 -16 loadbang;
#X msg 64 9 12 0 26 1;
#X connect 0 0 9 0;
#X connect 2 0 3 0;
#X connect 3 0 9 0;
#X connect 4 0 9 0;
#X connect 5 0 7 0;
#X connect 6 0 8 0;
#X connect 7 0 9 0;
#X connect 8 0 9 0;
#X connect 9 0 1 0;
#X connect 10 0 4 0;
#X connect 11 0 5 0;
#X connect 11 1 2 0;
#X connect 11 2 6 0;
#X connect 11 3 10 0;
#X connect 12 0 13 0;
#X connect 13 0 11 0;
#X restore 375 269 pd refraction;
#X obj 427 215 pix_colorreduce;
#X floatatom 450 177 5 0 255 2 number - - 0;
#X floatatom 502 177 5 0 1 2 persist - - 0;
#X obj 555 175 tgl 15 0 empty empty smooth 0 -6 0 8 #fcfcfc #000000 #000000 0 1;
#X msg 519 371 horizontal;
#X msg 519 391 vertical;
#X obj 456 431 pix_flip;
#X obj 552 300 i 0;
#X obj 588 302 + 1;
#X floatatom 670 334 5 0 0 0 - - - 0;
#X obj 670 357 % 2;
#X floatatom 672 387 5 0 0 0 - - - 0;
#X obj 553 339 sel 0 1;
#X obj 638 91 cube2;
#X obj 164 14 inlet;
#X obj 49 391 video;
#X connect 0 0 9 0;
#X connect 0 0 11 0;
#X connect 1 0 12 0;
#X connect 1 0 13 0;
#X connect 1 1 17 0;
#X connect 2 0 3 0;
#X connect 5 0 4 0;
#X connect 6 0 7 0;
#X connect 7 0 32 1;
#X connect 8 0 34 1;
#X connect 9 0 8 0;
#X connect 10 0 34 2;
#X connect 11 0 10 0;
#X connect 12 0 34 0;
#X connect 14 0 3 1;
#X connect 15 0 16 0;
#X connect 16 0 8 0;
#X connect 17 0 5 0;
#X connect 18 0 5 0;
#X connect 20 0 19 1;
#X connect 21 0 19 2;
#X connect 22 0 19 3;
#X connect 23 0 25 0;
#X connect 24 0 25 0;
#X connect 25 0 4 0;
#X connect 26 0 27 0;
#X connect 26 0 28 0;
#X connect 27 0 26 1;
#X connect 28 0 29 0;
#X connect 29 0 30 0;
#X connect 30 0 31 0;
#X connect 31 0 23 0;
#X connect 31 1 24 0;
#X connect 33 0 1 0;
#X restore 26 446 pd main-visuals;
#N canvas 344 170 867 732 main-audio 1;
#X obj 19 13 inlet;
#X floatatom 34 155 5 0 0 0 - - - 0;
#X obj 94 164 bng 15 250 50 0 empty empty empty 17 7 0 10 #fcfcfc #000000 #000000;
#X obj 44 104 bng 15 250 50 0 empty empty empty 17 7 0 10 #fcfcfc #000000 #000000;
#X obj 33 128 mseq;
#X obj 28 214 clap~;
#X obj 15 540 dac~;
#X obj 21 505 *~ 0.9;
#X floatatom 14 242 5 0 0 0 - - - 0;
#X obj 190 206 bng 15 250 50 0 empty empty empty 17 7 0 10 #fcfcfc #000000 #000000;
#X obj 129 170 mseq;
#X obj 17 267 kick~;
#X msg 165 145 1 - 1 - 1 -;
#X obj 239 247 hihat~;
#X floatatom 255 219 5 0 0 0 - - - 0;
#X obj 254 192 mseq;
#X msg 290 167 1;
#X obj 305 217 bng 15 250 50 0 empty empty empty 17 7 0 10 #fcfcfc #000000 #000000;
#X obj 279 65 heavybass~;
#X obj 280 43 mseq;
#X obj 394 169 snare~;
#X obj 398 147 bng 19 250 50 0 empty empty empty 0 -10 0 12 #fcfcfc #000000 #000000;
#X msg 316 18 21 - 21 - 21 - 23 24 25 -;
#X obj 411 113 mseq;
#X msg 447 88 - - 1 -;
#X obj 46 181 bng 19 250 50 0 empty empty empty 0 -10 0 12 #fcfcfc #000000 #000000;
#X msg 69 103 -;
#X obj 33 80 spigot 1;
#X obj 89 25 loadbang;
#X obj 183 2 inlet;
#X obj 82 319 heavybass~;
#X obj 80 269 route bass;
#X connect 0 0 27 0;
#X connect 0 0 31 0;
#X connect 1 0 5 0;
#X connect 4 0 1 0;
#X connect 4 0 2 0;
#X connect 7 0 6 0;
#X connect 7 0 6 1;
#X connect 8 0 11 0;
#X connect 10 0 9 0;
#X connect 11 0 7 0;
#X connect 12 0 10 1;
#X connect 14 0 13 0;
#X connect 15 0 14 0;
#X connect 15 0 17 0;
#X connect 16 0 15 1;
#X connect 19 0 18 0;
#X connect 21 0 20 0;
#X connect 22 0 19 1;
#X connect 23 0 21 0;
#X connect 24 0 23 1;
#X connect 25 0 5 0;
#X connect 26 0 4 1;
#X connect 27 0 3 0;
#X connect 27 0 4 0;
#X connect 27 0 10 0;
#X connect 27 0 15 0;
#X connect 27 0 19 0;
#X connect 28 0 26 0;
#X connect 28 0 12 0;
#X connect 28 0 16 0;
#X connect 28 0 24 0;
#X connect 29 0 27 1;
#X connect 30 0 7 0;
#X restore 15 471 pd main-audio;
#X obj 20 181 tgl 19 0 empty empty empty 0 -10 0 12 #fcfcfc #000000 #000000 0 1;
#X obj 20 156 route transport speed;
#X floatatom 92 179 5 0 0 0 - - - 0;
#X obj 36 215 metro 100;
#X obj 36 240 s metro;
#X obj 188 37 route pz;
#N canvas 128 153 1040 669 pattern_bank 0;
#N canvas 0 0 1070 944 pattern1 0;
#X obj 49 324 mseq;
#X msg 103 271 - 2 3 4 5 6 7 9;
#X obj 94 127 bng 15 250 50 0 empty empty empty 17 7 0 10 #fcfcfc #000000 #000000;
#X floatatom 149 152 5 0 0 0 - - - 0;
#X floatatom 164 178 5 0 0 0 - - - 0;
#X floatatom 181 204 5 0 0 0 - - - 0;
#X obj 123 226 randseq;
#X text 113 120 generate the sequence;
#X text 196 150 iterations of random notes to add: more iterations creates more random notes;
#X text 209 176 random max: the maximum value used in the random number generation;
#X text 222 204 seq length: the length of sequence;
#X text 219 269 randseq creates a list of numbers and - hyphen for rests;
#X obj 72 40 route p1;
#X obj 72 15 r message;
#X listbox 72 297 81 0 0 0 - - - 0;
#X obj 83 66 route rand;
#X obj 85 95 unpack i i i;
#X obj 178 96 pipe 11;
#X obj 49 368 s pattern1;
#X obj 11 76 r metro;
#X obj 131 368 outlet;
#X connect 0 0 20 0;
#X connect 0 0 18 0;
#X connect 1 0 0 1;
#X connect 2 0 6 0;
#X connect 3 0 6 1;
#X connect 4 0 6 2;
#X connect 5 0 6 3;
#X connect 6 0 14 0;
#X connect 12 0 14 0;
#X connect 12 0 15 0;
#X connect 13 0 12 0;
#X connect 14 0 0 1;
#X connect 15 0 16 0;
#X connect 16 0 3 0;
#X connect 16 0 17 0;
#X connect 16 1 4 0;
#X connect 16 2 5 0;
#X connect 17 0 2 0;
#X connect 19 0 0 0;
#X restore 9 5 pd pattern1;
#X floatatom 10 26 5 0 0 0 - - - 0;
#X obj 50 26 bng 19 250 50 0 empty empty empty 0 -10 0 12 #fcfcfc #000000 #000000;
#X floatatom 12 70 5 0 0 0 - - - 0;
#X obj 52 70 bng 19 250 50 0 empty empty empty 0 -10 0 12 #fcfcfc #000000 #000000;
#N canvas 0 0 1070 944 pattern2 0;
#X obj 49 324 mseq;
#X msg 103 271 - 2 3 4 5 6 7 9;
#X obj 94 127 bng 15 250 50 0 empty empty empty 17 7 0 10 #fcfcfc #000000 #000000;
#X floatatom 149 152 5 0 0 0 - - - 0;
#X floatatom 164 178 5 0 0 0 - - - 0;
#X floatatom 181 204 5 0 0 0 - - - 0;
#X obj 123 226 randseq;
#X text 113 120 generate the sequence;
#X text 196 150 iterations of random notes to add: more iterations creates more random notes;
#X text 209 176 random max: the maximum value used in the random number generation;
#X text 222 204 seq length: the length of sequence;
#X text 219 269 randseq creates a list of numbers and - hyphen for rests;
#X obj 72 15 r message;
#X listbox 72 297 81 0 0 0 - - - 0;
#X obj 83 66 route rand;
#X obj 85 95 unpack i i i;
#X obj 178 96 pipe 11;
#X obj 11 76 r metro;
#X obj 131 368 outlet;
#X obj 72 40 route p2;
#X obj 49 368 s pattern2;
#X connect 0 0 18 0;
#X connect 0 0 20 0;
#X connect 1 0 0 1;
#X connect 2 0 6 0;
#X connect 3 0 6 1;
#X connect 4 0 6 2;
#X connect 5 0 6 3;
#X connect 6 0 13 0;
#X connect 12 0 19 0;
#X connect 13 0 0 1;
#X connect 14 0 15 0;
#X connect 15 0 3 0;
#X connect 15 0 16 0;
#X connect 15 1 4 0;
#X connect 15 2 5 0;
#X connect 16 0 2 0;
#X connect 17 0 0 0;
#X connect 19 0 13 0;
#X connect 19 0 14 0;
#X restore 11 49 pd pattern2;
#X floatatom 13 114 5 0 0 0 - - - 0;
#X obj 53 114 bng 19 250 50 0 empty empty empty 0 -10 0 12 #fcfcfc #000000 #000000;
#N canvas 0 0 1070 944 pattern3 0;
#X obj 49 324 mseq;
#X msg 103 271 - 2 3 4 5 6 7 9;
#X obj 94 127 bng 15 250 50 0 empty empty empty 17 7 0 10 #fcfcfc #000000 #000000;
#X floatatom 149 152 5 0 0 0 - - - 0;
#X floatatom 164 178 5 0 0 0 - - - 0;
#X floatatom 181 204 5 0 0 0 - - - 0;
#X obj 123 226 randseq;
#X text 113 120 generate the sequence;
#X text 196 150 iterations of random notes to add: more iterations creates more random notes;
#X text 209 176 random max: the maximum value used in the random number generation;
#X text 222 204 seq length: the length of sequence;
#X text 219 269 randseq creates a list of numbers and - hyphen for rests;
#X obj 72 15 r message;
#X listbox 72 297 81 0 0 0 - - - 0;
#X obj 83 66 route rand;
#X obj 85 95 unpack i i i;
#X obj 178 96 pipe 11;
#X obj 11 76 r metro;
#X obj 131 368 outlet;
#X obj 72 40 route p3;
#X obj 49 368 s pattern3;
#X connect 0 0 18 0;
#X connect 0 0 20 0;
#X connect 1 0 0 1;
#X connect 2 0 6 0;
#X connect 3 0 6 1;
#X connect 4 0 6 2;
#X connect 5 0 6 3;
#X connect 6 0 13 0;
#X connect 12 0 19 0;
#X connect 13 0 0 1;
#X connect 14 0 15 0;
#X connect 15 0 3 0;
#X connect 15 0 16 0;
#X connect 15 1 4 0;
#X connect 15 2 5 0;
#X connect 16 0 2 0;
#X connect 17 0 0 0;
#X connect 19 0 13 0;
#X connect 19 0 14 0;
#X restore 12 93 pd pattern3;
#X floatatom 13 156 5 0 0 0 - - - 0;
#X obj 53 156 bng 19 250 50 0 empty empty empty 0 -10 0 12 #fcfcfc #000000 #000000;
#N canvas 0 0 1070 944 pattern4 0;
#X obj 49 324 mseq;
#X msg 103 271 - 2 3 4 5 6 7 9;
#X obj 94 127 bng 15 250 50 0 empty empty empty 17 7 0 10 #fcfcfc #000000 #000000;
#X floatatom 149 152 5 0 0 0 - - - 0;
#X floatatom 164 178 5 0 0 0 - - - 0;
#X floatatom 181 204 5 0 0 0 - - - 0;
#X obj 123 226 randseq;
#X text 113 120 generate the sequence;
#X text 196 150 iterations of random notes to add: more iterations creates more random notes;
#X text 209 176 random max: the maximum value used in the random number generation;
#X text 222 204 seq length: the length of sequence;
#X text 219 269 randseq creates a list of numbers and - hyphen for rests;
#X obj 72 15 r message;
#X listbox 72 297 81 0 0 0 - - - 0;
#X obj 83 66 route rand;
#X obj 85 95 unpack i i i;
#X obj 178 96 pipe 11;
#X obj 11 76 r metro;
#X obj 131 368 outlet;
#X obj 49 368 s pattern4;
#X obj 72 40 route p4;
#X connect 0 0 18 0;
#X connect 0 0 19 0;
#X connect 1 0 0 1;
#X connect 2 0 6 0;
#X connect 3 0 6 1;
#X connect 4 0 6 2;
#X connect 5 0 6 3;
#X connect 6 0 13 0;
#X connect 12 0 20 0;
#X connect 13 0 0 1;
#X connect 14 0 15 0;
#X connect 15 0 3 0;
#X connect 15 0 16 0;
#X connect 15 1 4 0;
#X connect 15 2 5 0;
#X connect 16 0 2 0;
#X connect 17 0 0 0;
#X connect 20 0 13 0;
#X connect 20 0 14 0;
#X restore 12 135 pd pattern4;
#X floatatom 102 24 5 0 0 0 - - - 0;
#X obj 142 24 bng 19 250 50 0 empty empty empty 0 -10 0 12 #fcfcfc #000000 #000000;
#X floatatom 104 68 5 0 0 0 - - - 0;
#X obj 144 68 bng 19 250 50 0 empty empty empty 0 -10 0 12 #fcfcfc #000000 #000000;
#X floatatom 105 112 5 0 0 0 - - - 0;
#X obj 145 112 bng 19 250 50 0 empty empty empty 0 -10 0 12 #fcfcfc #000000 #000000;
#X floatatom 105 154 5 0 0 0 - - - 0;
#X obj 145 154 bng 19 250 50 0 empty empty empty 0 -10 0 12 #fcfcfc #000000 #000000;
#X floatatom 197 25 5 0 0 0 - - - 0;
#X obj 237 25 bng 19 250 50 0 empty empty empty 0 -10 0 12 #fcfcfc #000000 #000000;
#X floatatom 199 69 5 0 0 0 - - - 0;
#X obj 239 69 bng 19 250 50 0 empty empty empty 0 -10 0 12 #fcfcfc #000000 #000000;
#X floatatom 200 113 5 0 0 0 - - - 0;
#X obj 240 113 bng 19 250 50 0 empty empty empty 0 -10 0 12 #fcfcfc #000000 #000000;
#X floatatom 200 155 5 0 0 0 - - - 0;
#X obj 240 155 bng 19 250 50 0 empty empty empty 0 -10 0 12 #fcfcfc #000000 #000000;
#X floatatom 289 23 5 0 0 0 - - - 0;
#X obj 329 23 bng 19 250 50 0 empty empty empty 0 -10 0 12 #fcfcfc #000000 #000000;
#X floatatom 291 67 5 0 0 0 - - - 0;
#X obj 331 67 bng 19 250 50 0 empty empty empty 0 -10 0 12 #fcfcfc #000000 #000000;
#X floatatom 292 111 5 0 0 0 - - - 0;
#X obj 332 111 bng 19 250 50 0 empty empty empty 0 -10 0 12 #fcfcfc #000000 #000000;
#X floatatom 292 153 5 0 0 0 - - - 0;
#X obj 332 153 bng 19 250 50 0 empty empty empty 0 -10 0 12 #fcfcfc #000000 #000000;
#N canvas 0 0 1070 944 pattern5 0;
#X obj 49 324 mseq;
#X msg 103 271 - 2 3 4 5 6 7 9;
#X obj 94 127 bng 15 250 50 0 empty empty empty 17 7 0 10 #fcfcfc #000000 #000000;
#X floatatom 149 152 5 0 0 0 - - - 0;
#X floatatom 164 178 5 0 0 0 - - - 0;
#X floatatom 181 204 5 0 0 0 - - - 0;
#X obj 123 226 randseq;
#X text 113 120 generate the sequence;
#X text 196 150 iterations of random notes to add: more iterations creates more random notes;
#X text 209 176 random max: the maximum value used in the random number generation;
#X text 222 204 seq length: the length of sequence;
#X text 219 269 randseq creates a list of numbers and - hyphen for rests;
#X obj 72 15 r message;
#X listbox 72 297 81 0 0 0 - - - 0;
#X obj 83 66 route rand;
#X obj 85 95 unpack i i i;
#X obj 178 96 pipe 11;
#X obj 11 76 r metro;
#X obj 131 368 outlet;
#X obj 72 40 route p5;
#X obj 49 368 s pattern5;
#X connect 0 0 18 0;
#X connect 0 0 20 0;
#X connect 1 0 0 1;
#X connect 2 0 6 0;
#X connect 3 0 6 1;
#X connect 4 0 6 2;
#X connect 5 0 6 3;
#X connect 6 0 13 0;
#X connect 12 0 19 0;
#X connect 13 0 0 1;
#X connect 14 0 15 0;
#X connect 15 0 3 0;
#X connect 15 0 16 0;
#X connect 15 1 4 0;
#X connect 15 2 5 0;
#X connect 16 0 2 0;
#X connect 17 0 0 0;
#X connect 19 0 13 0;
#X connect 19 0 14 0;
#X restore 101 3 pd pattern5;
#N canvas 0 0 1070 944 pattern6 0;
#X obj 49 324 mseq;
#X msg 103 271 - 2 3 4 5 6 7 9;
#X obj 94 127 bng 15 250 50 0 empty empty empty 17 7 0 10 #fcfcfc #000000 #000000;
#X floatatom 149 152 5 0 0 0 - - - 0;
#X floatatom 164 178 5 0 0 0 - - - 0;
#X floatatom 181 204 5 0 0 0 - - - 0;
#X obj 123 226 randseq;
#X text 113 120 generate the sequence;
#X text 196 150 iterations of random notes to add: more iterations creates more random notes;
#X text 209 176 random max: the maximum value used in the random number generation;
#X text 222 204 seq length: the length of sequence;
#X text 219 269 randseq creates a list of numbers and - hyphen for rests;
#X obj 72 15 r message;
#X listbox 72 297 81 0 0 0 - - - 0;
#X obj 83 66 route rand;
#X obj 85 95 unpack i i i;
#X obj 178 96 pipe 11;
#X obj 11 76 r metro;
#X obj 131 368 outlet;
#X obj 72 40 route p6;
#X obj 49 368 s pattern6;
#X connect 0 0 18 0;
#X connect 0 0 20 0;
#X connect 1 0 0 1;
#X connect 2 0 6 0;
#X connect 3 0 6 1;
#X connect 4 0 6 2;
#X connect 5 0 6 3;
#X connect 6 0 13 0;
#X connect 12 0 19 0;
#X connect 13 0 0 1;
#X connect 14 0 15 0;
#X connect 15 0 3 0;
#X connect 15 0 16 0;
#X connect 15 1 4 0;
#X connect 15 2 5 0;
#X connect 16 0 2 0;
#X connect 17 0 0 0;
#X connect 19 0 13 0;
#X connect 19 0 14 0;
#X restore 103 47 pd pattern6;
#N canvas 0 0 1070 944 pattern7 0;
#X obj 49 324 mseq;
#X msg 103 271 - 2 3 4 5 6 7 9;
#X obj 94 127 bng 15 250 50 0 empty empty empty 17 7 0 10 #fcfcfc #000000 #000000;
#X floatatom 149 152 5 0 0 0 - - - 0;
#X floatatom 164 178 5 0 0 0 - - - 0;
#X floatatom 181 204 5 0 0 0 - - - 0;
#X obj 123 226 randseq;
#X text 113 120 generate the sequence;
#X text 196 150 iterations of random notes to add: more iterations creates more random notes;
#X text 209 176 random max: the maximum value used in the random number generation;
#X text 222 204 seq length: the length of sequence;
#X text 219 269 randseq creates a list of numbers and - hyphen for rests;
#X obj 72 15 r message;
#X listbox 72 297 81 0 0 0 - - - 0;
#X obj 83 66 route rand;
#X obj 85 95 unpack i i i;
#X obj 178 96 pipe 11;
#X obj 11 76 r metro;
#X obj 131 368 outlet;
#X obj 72 40 route p7;
#X obj 49 368 s pattern7;
#X connect 0 0 18 0;
#X connect 0 0 20 0;
#X connect 1 0 0 1;
#X connect 2 0 6 0;
#X connect 3 0 6 1;
#X connect 4 0 6 2;
#X connect 5 0 6 3;
#X connect 6 0 13 0;
#X connect 12 0 19 0;
#X connect 13 0 0 1;
#X connect 14 0 15 0;
#X connect 15 0 3 0;
#X connect 15 0 16 0;
#X connect 15 1 4 0;
#X connect 15 2 5 0;
#X connect 16 0 2 0;
#X connect 17 0 0 0;
#X connect 19 0 13 0;
#X connect 19 0 14 0;
#X restore 104 91 pd pattern7;
#N canvas 0 0 1070 944 pattern8 0;
#X obj 49 324 mseq;
#X msg 103 271 - 2 3 4 5 6 7 9;
#X obj 94 127 bng 15 250 50 0 empty empty empty 17 7 0 10 #fcfcfc #000000 #000000;
#X floatatom 149 152 5 0 0 0 - - - 0;
#X floatatom 164 178 5 0 0 0 - - - 0;
#X floatatom 181 204 5 0 0 0 - - - 0;
#X obj 123 226 randseq;
#X text 113 120 generate the sequence;
#X text 196 150 iterations of random notes to add: more iterations creates more random notes;
#X text 209 176 random max: the maximum value used in the random number generation;
#X text 222 204 seq length: the length of sequence;
#X text 219 269 randseq creates a list of numbers and - hyphen for rests;
#X obj 72 15 r message;
#X listbox 72 297 81 0 0 0 - - - 0;
#X obj 83 66 route rand;
#X obj 85 95 unpack i i i;
#X obj 178 96 pipe 11;
#X obj 11 76 r metro;
#X obj 131 368 outlet;
#X obj 72 40 route p8;
#X obj 49 368 s pattern8;
#X connect 0 0 18 0;
#X connect 0 0 20 0;
#X connect 1 0 0 1;
#X connect 2 0 6 0;
#X connect 3 0 6 1;
#X connect 4 0 6 2;
#X connect 5 0 6 3;
#X connect 6 0 13 0;
#X connect 12 0 19 0;
#X connect 13 0 0 1;
#X connect 14 0 15 0;
#X connect 15 0 3 0;
#X connect 15 0 16 0;
#X connect 15 1 4 0;
#X connect 15 2 5 0;
#X connect 16 0 2 0;
#X connect 17 0 0 0;
#X connect 19 0 13 0;
#X connect 19 0 14 0;
#X restore 104 133 pd pattern8;
#N canvas 0 0 1070 944 pattern9 0;
#X obj 49 324 mseq;
#X msg 103 271 - 2 3 4 5 6 7 9;
#X obj 94 127 bng 15 250 50 0 empty empty empty 17 7 0 10 #fcfcfc #000000 #000000;
#X floatatom 149 152 5 0 0 0 - - - 0;
#X floatatom 164 178 5 0 0 0 - - - 0;
#X floatatom 181 204 5 0 0 0 - - - 0;
#X obj 123 226 randseq;
#X text 113 120 generate the sequence;
#X text 196 150 iterations of random notes to add: more iterations creates more random notes;
#X text 209 176 random max: the maximum value used in the random number generation;
#X text 222 204 seq length: the length of sequence;
#X text 219 269 randseq creates a list of numbers and - hyphen for rests;
#X obj 72 15 r message;
#X listbox 72 297 81 0 0 0 - - - 0;
#X obj 83 66 route rand;
#X obj 85 95 unpack i i i;
#X obj 178 96 pipe 11;
#X obj 11 76 r metro;
#X obj 131 368 outlet;
#X obj 72 40 route p9;
#X obj 49 368 s pattern9;
#X connect 0 0 18 0;
#X connect 0 0 20 0;
#X connect 1 0 0 1;
#X connect 2 0 6 0;
#X connect 3 0 6 1;
#X connect 4 0 6 2;
#X connect 5 0 6 3;
#X connect 6 0 13 0;
#X connect 12 0 19 0;
#X connect 13 0 0 1;
#X connect 14 0 15 0;
#X connect 15 0 3 0;
#X connect 15 0 16 0;
#X connect 15 1 4 0;
#X connect 15 2 5 0;
#X connect 16 0 2 0;
#X connect 17 0 0 0;
#X connect 19 0 13 0;
#X connect 19 0 14 0;
#X restore 196 4 pd pattern9;
#N canvas 0 0 1070 944 pattern10 0;
#X obj 49 324 mseq;
#X msg 103 271 - 2 3 4 5 6 7 9;
#X obj 94 127 bng 15 250 50 0 empty empty empty 17 7 0 10 #fcfcfc #000000 #000000;
#X floatatom 149 152 5 0 0 0 - - - 0;
#X floatatom 164 178 5 0 0 0 - - - 0;
#X floatatom 181 204 5 0 0 0 - - - 0;
#X obj 123 226 randseq;
#X text 113 120 generate the sequence;
#X text 196 150 iterations of random notes to add: more iterations creates more random notes;
#X text 209 176 random max: the maximum value used in the random number generation;
#X text 222 204 seq length: the length of sequence;
#X text 219 269 randseq creates a list of numbers and - hyphen for rests;
#X obj 72 15 r message;
#X listbox 72 297 81 0 0 0 - - - 0;
#X obj 83 66 route rand;
#X obj 85 95 unpack i i i;
#X obj 178 96 pipe 11;
#X obj 11 76 r metro;
#X obj 131 368 outlet;
#X obj 49 368 s pattern10;
#X obj 72 40 route p10;
#X connect 0 0 18 0;
#X connect 0 0 19 0;
#X connect 1 0 0 1;
#X connect 2 0 6 0;
#X connect 3 0 6 1;
#X connect 4 0 6 2;
#X connect 5 0 6 3;
#X connect 6 0 13 0;
#X connect 12 0 20 0;
#X connect 13 0 0 1;
#X connect 14 0 15 0;
#X connect 15 0 3 0;
#X connect 15 0 16 0;
#X connect 15 1 4 0;
#X connect 15 2 5 0;
#X connect 16 0 2 0;
#X connect 17 0 0 0;
#X connect 20 0 13 0;
#X connect 20 0 14 0;
#X restore 198 48 pd pattern10;
#N canvas 0 0 1070 944 pattern11 0;
#X obj 49 324 mseq;
#X msg 103 271 - 2 3 4 5 6 7 9;
#X obj 94 127 bng 15 250 50 0 empty empty empty 17 7 0 10 #fcfcfc #000000 #000000;
#X floatatom 149 152 5 0 0 0 - - - 0;
#X floatatom 164 178 5 0 0 0 - - - 0;
#X floatatom 181 204 5 0 0 0 - - - 0;
#X obj 123 226 randseq;
#X text 113 120 generate the sequence;
#X text 196 150 iterations of random notes to add: more iterations creates more random notes;
#X text 209 176 random max: the maximum value used in the random number generation;
#X text 222 204 seq length: the length of sequence;
#X text 219 269 randseq creates a list of numbers and - hyphen for rests;
#X obj 72 15 r message;
#X listbox 72 297 81 0 0 0 - - - 0;
#X obj 83 66 route rand;
#X obj 85 95 unpack i i i;
#X obj 178 96 pipe 11;
#X obj 11 76 r metro;
#X obj 131 368 outlet;
#X obj 72 40 route p11;
#X obj 49 368 s pattern11;
#X connect 0 0 18 0;
#X connect 0 0 20 0;
#X connect 1 0 0 1;
#X connect 2 0 6 0;
#X connect 3 0 6 1;
#X connect 4 0 6 2;
#X connect 5 0 6 3;
#X connect 6 0 13 0;
#X connect 12 0 19 0;
#X connect 13 0 0 1;
#X connect 14 0 15 0;
#X connect 15 0 3 0;
#X connect 15 0 16 0;
#X connect 15 1 4 0;
#X connect 15 2 5 0;
#X connect 16 0 2 0;
#X connect 17 0 0 0;
#X connect 19 0 13 0;
#X connect 19 0 14 0;
#X restore 199 92 pd pattern11;
#N canvas 0 0 1070 944 pattern12 0;
#X obj 49 324 mseq;
#X msg 103 271 - 2 3 4 5 6 7 9;
#X obj 94 127 bng 15 250 50 0 empty empty empty 17 7 0 10 #fcfcfc #000000 #000000;
#X floatatom 149 152 5 0 0 0 - - - 0;
#X floatatom 164 178 5 0 0 0 - - - 0;
#X floatatom 181 204 5 0 0 0 - - - 0;
#X obj 123 226 randseq;
#X text 113 120 generate the sequence;
#X text 196 150 iterations of random notes to add: more iterations creates more random notes;
#X text 209 176 random max: the maximum value used in the random number generation;
#X text 222 204 seq length: the length of sequence;
#X text 219 269 randseq creates a list of numbers and - hyphen for rests;
#X obj 72 15 r message;
#X listbox 72 297 81 0 0 0 - - - 0;
#X obj 83 66 route rand;
#X obj 85 95 unpack i i i;
#X obj 178 96 pipe 11;
#X obj 11 76 r metro;
#X obj 131 368 outlet;
#X obj 72 40 route p12;
#X obj 49 368 s pattern12;
#X connect 0 0 18 0;
#X connect 0 0 20 0;
#X connect 1 0 0 1;
#X connect 2 0 6 0;
#X connect 3 0 6 1;
#X connect 4 0 6 2;
#X connect 5 0 6 3;
#X connect 6 0 13 0;
#X connect 12 0 19 0;
#X connect 13 0 0 1;
#X connect 14 0 15 0;
#X connect 15 0 3 0;
#X connect 15 0 16 0;
#X connect 15 1 4 0;
#X connect 15 2 5 0;
#X connect 16 0 2 0;
#X connect 17 0 0 0;
#X connect 19 0 13 0;
#X connect 19 0 14 0;
#X restore 199 134 pd pattern12;
#N canvas 0 0 1070 944 pattern13 0;
#X obj 49 324 mseq;
#X msg 103 271 - 2 3 4 5 6 7 9;
#X obj 94 127 bng 15 250 50 0 empty empty empty 17 7 0 10 #fcfcfc #000000 #000000;
#X floatatom 149 152 5 0 0 0 - - - 0;
#X floatatom 164 178 5 0 0 0 - - - 0;
#X floatatom 181 204 5 0 0 0 - - - 0;
#X obj 123 226 randseq;
#X text 113 120 generate the sequence;
#X text 196 150 iterations of random notes to add: more iterations creates more random notes;
#X text 209 176 random max: the maximum value used in the random number generation;
#X text 222 204 seq length: the length of sequence;
#X text 219 269 randseq creates a list of numbers and - hyphen for rests;
#X obj 72 15 r message;
#X listbox 72 297 81 0 0 0 - - - 0;
#X obj 83 66 route rand;
#X obj 85 95 unpack i i i;
#X obj 178 96 pipe 11;
#X obj 11 76 r metro;
#X obj 131 368 outlet;
#X obj 72 40 route p13;
#X obj 49 368 s pattern13;
#X connect 0 0 18 0;
#X connect 0 0 20 0;
#X connect 1 0 0 1;
#X connect 2 0 6 0;
#X connect 3 0 6 1;
#X connect 4 0 6 2;
#X connect 5 0 6 3;
#X connect 6 0 13 0;
#X connect 12 0 19 0;
#X connect 13 0 0 1;
#X connect 14 0 15 0;
#X connect 15 0 3 0;
#X connect 15 0 16 0;
#X connect 15 1 4 0;
#X connect 15 2 5 0;
#X connect 16 0 2 0;
#X connect 17 0 0 0;
#X connect 19 0 13 0;
#X connect 19 0 14 0;
#X restore 288 2 pd pattern13;
#N canvas 0 0 1070 944 pattern14 0;
#X obj 49 324 mseq;
#X msg 103 271 - 2 3 4 5 6 7 9;
#X obj 94 127 bng 15 250 50 0 empty empty empty 17 7 0 10 #fcfcfc #000000 #000000;
#X floatatom 149 152 5 0 0 0 - - - 0;
#X floatatom 164 178 5 0 0 0 - - - 0;
#X floatatom 181 204 5 0 0 0 - - - 0;
#X obj 123 226 randseq;
#X text 113 120 generate the sequence;
#X text 196 150 iterations of random notes to add: more iterations creates more random notes;
#X text 209 176 random max: the maximum value used in the random number generation;
#X text 222 204 seq length: the length of sequence;
#X text 219 269 randseq creates a list of numbers and - hyphen for rests;
#X obj 72 15 r message;
#X listbox 72 297 81 0 0 0 - - - 0;
#X obj 83 66 route rand;
#X obj 85 95 unpack i i i;
#X obj 178 96 pipe 11;
#X obj 11 76 r metro;
#X obj 131 368 outlet;
#X obj 72 40 route p14;
#X obj 49 368 s pattern14;
#X connect 0 0 18 0;
#X connect 0 0 20 0;
#X connect 1 0 0 1;
#X connect 2 0 6 0;
#X connect 3 0 6 1;
#X connect 4 0 6 2;
#X connect 5 0 6 3;
#X connect 6 0 13 0;
#X connect 12 0 19 0;
#X connect 13 0 0 1;
#X connect 14 0 15 0;
#X connect 15 0 3 0;
#X connect 15 0 16 0;
#X connect 15 1 4 0;
#X connect 15 2 5 0;
#X connect 16 0 2 0;
#X connect 17 0 0 0;
#X connect 19 0 13 0;
#X connect 19 0 14 0;
#X restore 290 46 pd pattern14;
#N canvas 0 0 1070 944 pattern15 0;
#X obj 49 324 mseq;
#X msg 103 271 - 2 3 4 5 6 7 9;
#X obj 94 127 bng 15 250 50 0 empty empty empty 17 7 0 10 #fcfcfc #000000 #000000;
#X floatatom 149 152 5 0 0 0 - - - 0;
#X floatatom 164 178 5 0 0 0 - - - 0;
#X floatatom 181 204 5 0 0 0 - - - 0;
#X obj 123 226 randseq;
#X text 113 120 generate the sequence;
#X text 196 150 iterations of random notes to add: more iterations creates more random notes;
#X text 209 176 random max: the maximum value used in the random number generation;
#X text 222 204 seq length: the length of sequence;
#X text 219 269 randseq creates a list of numbers and - hyphen for rests;
#X obj 72 15 r message;
#X listbox 72 297 81 0 0 0 - - - 0;
#X obj 83 66 route rand;
#X obj 85 95 unpack i i i;
#X obj 178 96 pipe 11;
#X obj 11 76 r metro;
#X obj 131 368 outlet;
#X obj 72 40 route p15;
#X obj 49 368 s pattern15;
#X connect 0 0 18 0;
#X connect 0 0 20 0;
#X connect 1 0 0 1;
#X connect 2 0 6 0;
#X connect 3 0 6 1;
#X connect 4 0 6 2;
#X connect 5 0 6 3;
#X connect 6 0 13 0;
#X connect 12 0 19 0;
#X connect 13 0 0 1;
#X connect 14 0 15 0;
#X connect 15 0 3 0;
#X connect 15 0 16 0;
#X connect 15 1 4 0;
#X connect 15 2 5 0;
#X connect 16 0 2 0;
#X connect 17 0 0 0;
#X connect 19 0 13 0;
#X connect 19 0 14 0;
#X restore 291 90 pd pattern15;
#N canvas 0 0 1070 944 pattern16 0;
#X obj 49 324 mseq;
#X msg 103 271 - 2 3 4 5 6 7 9;
#X obj 94 127 bng 15 250 50 0 empty empty empty 17 7 0 10 #fcfcfc #000000 #000000;
#X floatatom 149 152 5 0 0 0 - - - 0;
#X floatatom 164 178 5 0 0 0 - - - 0;
#X floatatom 181 204 5 0 0 0 - - - 0;
#X obj 123 226 randseq;
#X text 113 120 generate the sequence;
#X text 196 150 iterations of random notes to add: more iterations creates more random notes;
#X text 209 176 random max: the maximum value used in the random number generation;
#X text 222 204 seq length: the length of sequence;
#X text 219 269 randseq creates a list of numbers and - hyphen for rests;
#X obj 72 15 r message;
#X listbox 72 297 81 0 0 0 - - - 0;
#X obj 83 66 route rand;
#X obj 85 95 unpack i i i;
#X obj 178 96 pipe 11;
#X obj 11 76 r metro;
#X obj 131 368 outlet;
#X obj 72 40 route p16;
#X obj 49 368 s pattern16;
#X connect 0 0 18 0;
#X connect 0 0 20 0;
#X connect 1 0 0 1;
#X connect 2 0 6 0;
#X connect 3 0 6 1;
#X connect 4 0 6 2;
#X connect 5 0 6 3;
#X connect 6 0 13 0;
#X connect 12 0 19 0;
#X connect 13 0 0 1;
#X connect 14 0 15 0;
#X connect 15 0 3 0;
#X connect 15 0 16 0;
#X connect 15 1 4 0;
#X connect 15 2 5 0;
#X connect 16 0 2 0;
#X connect 17 0 0 0;
#X connect 19 0 13 0;
#X connect 19 0 14 0;
#X restore 291 132 pd pattern16;
#X connect 0 0 1 0;
#X connect 0 0 2 0;
#X connect 5 0 3 0;
#X connect 5 0 4 0;
#X connect 8 0 6 0;
#X connect 8 0 7 0;
#X connect 11 0 9 0;
#X connect 11 0 10 0;
#X connect 36 0 12 0;
#X connect 36 0 13 0;
#X connect 37 0 14 0;
#X connect 37 0 15 0;
#X connect 38 0 16 0;
#X connect 38 0 17 0;
#X connect 39 0 18 0;
#X connect 39 0 19 0;
#X connect 40 0 20 0;
#X connect 40 0 21 0;
#X connect 41 0 22 0;
#X connect 41 0 23 0;
#X connect 42 0 24 0;
#X connect 42 0 25 0;
#X connect 43 0 26 0;
#X connect 43 0 27 0;
#X connect 44 0 28 0;
#X connect 44 0 29 0;
#X connect 45 0 30 0;
#X connect 45 0 31 0;
#X connect 46 0 32 0;
#X connect 46 0 33 0;
#X connect 47 0 34 0;
#X connect 47 0 35 0;
#X restore 160 212 pd pattern_bank;
#X connect 0 0 1 0;
#X connect 1 0 0 0;
#X connect 2 0 4 0;
#X connect 2 0 10 0;
#X connect 2 0 9 0;
#X connect 2 0 12 0;
#X connect 2 0 16 0;
#X connect 5 0 4 0;
#X connect 6 0 4 0;
#X connect 7 0 6 0;
#X connect 11 0 14 0;
#X connect 11 0 9 1;
#X connect 11 0 10 1;
#X connect 12 0 11 0;
#X connect 12 1 13 0;
#X connect 13 0 14 1;
#X connect 14 0 15 0;
