#N canvas 960 0 960 944 12;
#X declare -lib Gem;
#X obj 9 41 gemhead;
#X obj 7 7 declare -lib Gem;
#X obj 70 663 _gemwin;
#N canvas 210 93 636 782 thing 0;
#X msg 45 157 reset;
#X msg 124 350 draw line;
#X msg 124 371 draw fill;
#X msg 124 393 draw point;
#X obj 25 209 accumrotate 0 0 0;
#X floatatom 77 416 5 0 0 0 - - - 0;
#X msg 65 186 1;
#X msg 105 186 1;
#X msg 146 186 1;
#X obj 25 33 separator;
#X obj 72 238 + 1;
#X floatatom 40 263 5 0 0 0 - - - 0;
#X obj 115 128 random 11;
#X obj 40 238 f;
#X obj 40 287 / 20.1;
#X obj 123 325 loadbang;
#X obj 28 448 square 2.1;
#X obj 182 128 random 11;
#X obj 48 128 random 11;
#X obj 25 11 inlet;
#X obj 121 58 spigot 1;
#X obj 121 10 inlet;
#X connect 0 0 4 0;
#X connect 1 0 16 0;
#X connect 4 0 16 0;
#X connect 5 0 16 1;
#X connect 6 0 4 1;
#X connect 7 0 4 2;
#X connect 8 0 4 3;
#X connect 9 0 4 0;
#X connect 10 0 13 1;
#X connect 11 0 14 0;
#X connect 12 0 4 2;
#X connect 13 0 10 0;
#X connect 13 0 11 0;
#X connect 15 0 1 0;
#X connect 17 0 4 3;
#X connect 18 0 4 1;
#X connect 19 0 9 0;
#X connect 20 0 12 0;
#X connect 20 0 17 0;
#X connect 20 0 18 0;
#X connect 21 0 20 0;
#X restore 42 113 pd thing;
#X msg 62 89 all \$1;
#X floatatom 62 67 4 57 83 0 - - - 0;
#X obj 9 66 s test;
#X obj 127 89 metro 11;
#X obj 127 65 tgl 19 0 empty empty empty 0 -10 0 12 #fcfcfc #000000 #000000 0 1;
#X obj 127 114 s metro;
#X floatatom 179 66 5 0 0 0 - - - 0;
#X floatatom 13 198 5 0 0 0 - - - 0;
#X msg 14 271 resize \$1;
#X obj 13 222 moses 1, f 8;
#X obj 13 246 moses 111;
#X obj 14 326 clone spinning-cube 11;
#X connect 0 0 6 0;
#X connect 5 0 4 0;
#X connect 7 0 9 0;
#X connect 8 0 7 0;
#X connect 10 0 7 1;
#X connect 11 0 13 0;
#X connect 12 0 15 0;
#X connect 13 1 14 0;
#X connect 14 0 12 0;
