#N canvas 630 2 960 944 12;
#X msg 11 164 reset;
#X msg 94 363 draw line;
#X obj 25 209 accumrotate 0 0 0;
#X floatatom 77 416 5 0 0 0 - - - 0;
#X msg 65 186 1;
#X msg 105 186 1;
#X msg 146 186 1;
#X obj 25 33 separator;
#X obj 72 238 + 1;
#X floatatom 40 263 5 0 0 0 - - - 0;
#X obj 40 238 f;
#X obj 40 287 / 20.1;
#X obj 96 336 loadbang;
#X obj 28 448 square 2.1;
#X obj 121 58 spigot 1;
#X obj 120 34 r metro;
#X obj 51 115 / 10;
#X obj 114 114 / 10;
#X obj 181 111 / 10;
#X obj 43 86 random 11;
#X obj 116 86 random 11;
#X obj 196 86 random 11;
#X floatatom 156 314 5 0 0 0 - - - 0;
#X obj 156 289 / 100;
#X obj 153 263 random 200;
#X obj 281 175 bng 19 250 50 0 empty empty empty 0 -10 0 12 #fcfcfc #000000 #000000;
#X obj 301 175 bng 19 250 50 0 empty empty empty 0 -10 0 12 #fcfcfc #000000 #000000;
#X obj 278 99 bng 19 250 50 0 empty empty empty 0 -10 0 12 #fcfcfc #000000 #000000;
#X obj 320 175 bng 19 250 50 0 empty empty empty 0 -10 0 12 #fcfcfc #000000 #000000;
#X obj 280 127 random 3;
#X obj 281 153 sel 0 1 2;
#X obj 269 279 unpack 0 0 0;
#X obj 55 139 spigot 0;
#X obj 119 138 spigot 0;
#X obj 184 137 spigot 0;
#X obj 6 139 sel 11;
#X msg 272 200 1 0 0;
#X msg 275 220 0 1 0;
#X msg 281 239 0 0 1;
#X obj 219 385 / 10;
#X obj 219 360 random 100;
#X obj 418 13 float \$1;
#X obj 418 -31 bng 19 250 50 0 empty empty empty 17 7 0 10 #dfdfdf #000000 #000000;
#X floatatom 418 42 5 0 0 0 - - - 0;
#X text 449 -38 You can access the instance number within the patch., f 27;
#X obj 214 -71 inlet;
#X obj 214 -33 route float bang;
#X obj 418 65 print instance number;
#X obj 30 -44 r test;
#X connect 0 0 2 0;
#X connect 1 0 13 0;
#X connect 2 0 13 0;
#X connect 3 0 13 1;
#X connect 4 0 2 1;
#X connect 5 0 2 2;
#X connect 6 0 2 3;
#X connect 7 0 2 0;
#X connect 8 0 10 1;
#X connect 9 0 11 0;
#X connect 10 0 8 0;
#X connect 10 0 9 0;
#X connect 12 0 1 0;
#X connect 12 0 27 0;
#X connect 12 0 40 0;
#X connect 14 0 19 0;
#X connect 14 0 20 0;
#X connect 14 0 21 0;
#X connect 14 0 24 0;
#X connect 15 0 14 0;
#X connect 16 0 2 1;
#X connect 17 0 2 2;
#X connect 18 0 2 3;
#X connect 19 0 16 0;
#X connect 20 0 17 0;
#X connect 21 0 18 0;
#X connect 21 0 35 0;
#X connect 23 0 22 0;
#X connect 24 0 23 0;
#X connect 25 0 36 0;
#X connect 26 0 37 0;
#X connect 27 0 29 0;
#X connect 28 0 38 0;
#X connect 29 0 30 0;
#X connect 30 0 25 0;
#X connect 30 1 26 0;
#X connect 30 2 28 0;
#X connect 31 0 32 1;
#X connect 31 1 33 1;
#X connect 31 2 34 1;
#X connect 35 0 0 0;
#X connect 36 0 31 0;
#X connect 37 0 31 0;
#X connect 38 0 31 0;
#X connect 39 0 13 1;
#X connect 40 0 39 0;
#X connect 41 0 43 0;
#X connect 42 0 41 0;
#X connect 43 0 47 0;
#X connect 45 0 46 0;
#X connect 46 1 41 0;
#X connect 48 0 7 0;
