#N canvas 408 182 784 597 12;
#X obj 35 186 pix_film;
#X obj 37 482 pix_texture;
#X obj 37 504 rectangle 5.36 4.02;
#X obj 84 89 tgl 19 0 empty empty empty 0 -10 0 12 #fcfcfc #000000 #000000 0 1;
#X obj 152 134 openpanel;
#X msg 152 153 open \$1 RGBA;
#X msg 83 111 auto \$1;
#N canvas 50 90 970 659 video 0;
#X obj 327 179 pdcontrol;
#X msg 327 156 dir;
#X obj 327 137 bng 15 250 50 0 empty empty empty 17 7 0 10 #fcfcfc #000000 #000000;
#X obj 330 25 loadbang;
#X obj 323 317 file glob;
#X obj 324 263 symbol;
#X msg 323 291 symbol \$1/*;
#X obj 298 543 list store;
#X msg 322 344 append \$1;
#X msg 480 418 bang;
#X msg 298 517 get \$1;
#X floatatom 319 470 5 0 0 0 - - - 0;
#X obj 322 447 list length;
#X obj 298 492 % 3;
#X obj 247 -74 inlet;
#X obj 327 234 t a b, f 12;
#X obj 327 395 del 2;
#X obj 329 370 b;
#X obj 325 421 list store;
#X floatatom 220 435 5 0 0 0 - - - 0;
#X obj 280 593 outlet;
#X msg 327 204 \$1/../../videos;
#X obj 332 81 pipe 900;
#X obj 346 98 pipe 900;
#X msg 133 131 0;
#X obj 408 587 outlet;
#X connect 0 0 21 0;
#X connect 1 0 0 0;
#X connect 2 0 1 0;
#X connect 3 0 22 0;
#X connect 3 0 24 0;
#X connect 4 0 8 0;
#X connect 5 0 6 0;
#X connect 6 0 4 0;
#X connect 7 0 20 0;
#X connect 8 0 7 0;
#X connect 8 0 17 0;
#X connect 8 0 18 0;
#X connect 9 0 7 1;
#X connect 9 0 18 1;
#X connect 10 0 7 0;
#X connect 11 0 13 1;
#X connect 11 0 25 0;
#X connect 12 0 11 0;
#X connect 13 0 10 0;
#X connect 14 0 13 0;
#X connect 15 0 5 0;
#X connect 15 1 9 0;
#X connect 16 0 18 0;
#X connect 17 0 16 0;
#X connect 18 0 12 0;
#X connect 19 0 13 0;
#X connect 21 0 15 0;
#X connect 22 0 2 0;
#X connect 22 0 23 0;
#X connect 22 0 24 0;
#X connect 23 0 2 0;
#X connect 23 0 24 0;
#X connect 24 0 19 0;
#X restore 43 136 pd video;
#X msg 44 159 open \$1 RGBA;
#X obj 36 237 spigot 1;
#X obj 75 213 tgl 19 0 empty empty empty 0 -10 0 12 #fcfcfc #000000 #000000 0 1;
#X obj 86 67 loadbang;
#X obj 73 16 inlet;
#X obj 227 9 inlet;
#X obj 16 14 inlet;
#X obj 161 184 loadbang;
#X msg 161 208 1;
#X obj 152 100 bng 19 250 50 0 empty empty empty 0 -10 0 12 #fcfcfc #000000 #000000;
#X obj 187 283 outlet;
#X obj 134 250 bng 19 250 50 0 empty empty empty 0 -10 0 12 #fcfcfc #000000 #000000;
#X obj 237 283 outlet;
#X msg 109 187 1;
#X obj 107 212 pipe 11;
#X obj 68 410 pix_lumaoffset;
#X floatatom 113 352 5 0 0 2 offset - - 0;
#X floatatom 161 355 5 0 0 2 gap - - 0;
#X obj 150 372 tgl 15 0 empty empty empty 0 -6 0 8 #fcfcfc #000000 #000000 0 1;
#X msg 150 390 smooth \$1;
#X msg 82 389 fill \$1;
#X obj 82 371 tgl 15 0 empty empty empty 0 -6 0 8 #fcfcfc #000000 #000000 0 1;
#X connect 0 0 9 0;
#X connect 0 2 22 0;
#X connect 1 0 2 0;
#X connect 3 0 6 0;
#X connect 4 0 5 0;
#X connect 5 0 0 0;
#X connect 6 0 0 0;
#X connect 7 0 8 0;
#X connect 7 1 20 0;
#X connect 8 0 0 0;
#X connect 9 0 23 0;
#X connect 10 0 9 1;
#X connect 11 0 3 0;
#X connect 12 0 7 0;
#X connect 13 0 10 0;
#X connect 14 0 0 0;
#X connect 15 0 16 0;
#X connect 16 0 10 0;
#X connect 17 0 4 0;
#X connect 19 0 18 0;
#X connect 21 0 0 1;
#X connect 22 0 21 0;
#X connect 22 0 19 0;
#X connect 23 0 1 0;
#X connect 24 0 23 1;
#X connect 25 0 23 2;
#X connect 26 0 27 0;
#X connect 27 0 23 0;
#X connect 28 0 23 0;
#X connect 29 0 28 0;
