#N canvas 95 69 1101 761 12;
#X obj 212 270 file glob;
#X obj 213 216 symbol;
#X msg 212 244 symbol \$1/*;
#X obj 210 448 list store;
#X msg 211 297 append \$1;
#X msg 349 353 bang;
#X msg 76 620 get \$1;
#X floatatom 94 491 5 0 0 0 - - - 0;
#X obj 26 387 list length;
#X obj 76 595 % 3;
#X obj 611 595 bng 15 250 50 0 empty empty empty 17 7 0 10 #fcfcfc #000000 #000000;
#X obj 41 82 inlet;
#X obj 214 80 inlet;
#X obj 388 716 outlet~;
#X obj 214 156 t a b, f 20;
#X obj 231 371 del 2;
#X obj 232 331 b;
#X obj 29 349 list store;
#X obj 611 696 outlet;
#X msg 459 539 \$1;
#X obj 420 471 symbol;
#X obj 351 536 bng 20 250 50 0 empty empty empty 0 -10 0 12 #fcfcfc #000000 #000000;
#X obj 476 94 inlet;
#X obj 529 93 inlet;
#X obj 581 94 inlet;
#X obj 627 92 inlet;
#X msg 680 544 samples/hello.wav;
#X obj 684 474 loadbang;
#X obj 389 568 sample~ samples/hello.wav, f 32;
#X obj 403 654 *~ 0.99;
#X connect 0 0 4 0;
#X connect 1 0 2 0;
#X connect 2 0 0 0;
#X connect 3 0 21 0;
#X connect 3 0 20 0;
#X connect 4 0 3 0;
#X connect 4 0 16 0;
#X connect 4 0 17 0;
#X connect 5 0 3 1;
#X connect 5 0 17 1;
#X connect 6 0 3 0;
#X connect 7 0 9 1;
#X connect 8 0 7 0;
#X connect 9 0 6 0;
#X connect 10 0 18 0;
#X connect 11 0 9 0;
#X connect 12 0 14 0;
#X connect 14 0 1 0;
#X connect 14 1 5 0;
#X connect 15 0 17 0;
#X connect 16 0 15 0;
#X connect 17 0 8 0;
#X connect 19 0 28 2;
#X connect 20 0 19 0;
#X connect 21 0 28 0;
#X connect 22 0 28 3;
#X connect 23 0 28 4;
#X connect 24 0 28 5;
#X connect 25 0 28 6;
#X connect 26 0 28 2;
#X connect 27 0 26 0;
#X connect 28 0 29 0;
#X connect 28 1 29 0;
#X connect 28 2 10 0;
#X connect 29 0 13 0;
