#N canvas 1074 191 790 664 12;
#X obj 51 239 outlet;
#X obj 52 183 inlet;
#N canvas 291 214 787 662 togglefx 0;
#X obj 89 290 outlet;
#X obj 36 37 inlet;
#X obj 124 68 route on off;
#X obj 121 172 spigot 1;
#X obj 32 245 spigot 0;
#X msg 127 94 0 1;
#X msg 165 94 1 0;
#X obj 126 121 unpack 0 0;
#X obj 124 37 inlet;
#X obj 189 297 outlet;
#X obj 237 27 inlet;
#X obj 299 58 loadbang;
#X connect 1 0 4 0;
#X connect 1 0 3 0;
#X connect 2 0 5 0;
#X connect 2 1 6 0;
#X connect 3 0 9 0;
#X connect 4 0 0 0;
#X connect 5 0 7 0;
#X connect 6 0 7 0;
#X connect 7 0 4 1;
#X connect 7 1 3 1;
#X connect 8 0 2 0;
#X connect 10 0 0 0;
#X connect 11 0 5 0;
#X restore 52 209 pd togglefx;
#X obj 125 -59 r message;
#X obj 125 -7 route fx;
#X obj 125 -33 route v;
#X obj 125 15 route halftone;
#X obj 154 205 pix_halftone;
#X floatatom 166 158 5 1 32 2 size - - 0;
#X floatatom 214 158 5 0 0 2 angle - - 0;
#X floatatom 259 158 5 0 1 2 smooth - - 0;
#X obj 281 186 hradio 15 1 0 5 empty empty style 40 -6 0 8 #fcfcfc #000000 #000000 0;
#X msg 264 205 style \$1;
#X obj 125 40 route size angle smooth;
#X obj 234 71 route on off;
#X msg 234 100 1;
#X msg 272 100 0;
#X connect 1 0 2 0;
#X connect 2 0 0 0;
#X connect 2 1 7 0;
#X connect 3 0 5 0;
#X connect 4 0 6 0;
#X connect 5 0 4 0;
#X connect 6 0 2 1;
#X connect 6 0 13 0;
#X connect 7 0 2 2;
#X connect 8 0 7 1;
#X connect 9 0 7 2;
#X connect 10 0 7 3;
#X connect 11 0 12 0;
#X connect 12 0 7 0;
#X connect 13 0 8 0;
#X connect 13 1 9 0;
#X connect 13 2 14 0;
#X connect 14 0 15 0;
#X connect 14 1 16 0;
#X connect 15 0 7 3;
#X connect 16 0 7 3;
