#N canvas 519 139 1002 784 12;
#X obj 47 268 outlet;
#X obj 48 212 inlet;
#N canvas 291 214 787 662 togglefx 0;
#X obj 89 290 outlet;
#X obj 36 37 inlet;
#X obj 124 68 route on off;
#X obj 121 172 spigot 1;
#X obj 32 245 spigot 0;
#X msg 127 94 0 1;
#X msg 165 94 1 0;
#X obj 126 121 unpack 0 0;
#X obj 124 37 inlet;
#X obj 189 297 outlet;
#X obj 237 27 inlet;
#X obj 299 58 loadbang;
#X connect 1 0 4 0;
#X connect 1 0 3 0;
#X connect 2 0 5 0;
#X connect 2 1 6 0;
#X connect 3 0 9 0;
#X connect 4 0 0 0;
#X connect 5 0 7 0;
#X connect 6 0 7 0;
#X connect 7 0 4 1;
#X connect 7 1 3 1;
#X connect 8 0 2 0;
#X connect 10 0 0 0;
#X connect 11 0 5 0;
#X restore 48 238 pd togglefx;
#X obj 120 -66 r message;
#X obj 120 -14 route fx;
#X obj 120 -40 route v;
#X obj 156 235 pix_lumaoffset;
#X floatatom 202 180 5 0 0 2 offset - - 0;
#X floatatom 249 180 5 0 0 2 gap - - 0;
#X obj 238 197 tgl 15 0 empty empty empty 0 -6 0 8 #fcfcfc #000000 #000000 0 1;
#X msg 238 215 smooth \$1;
#X msg 170 214 fill \$1;
#X obj 170 196 tgl 15 0 empty empty empty 0 -6 0 8 #fcfcfc #000000 #000000 0 1;
#X obj 120 8 route lumaoffset;
#X obj 129 35 route offset gap fill smooth;
#X obj 230 64 route on off;
#X obj 323 64 route on off;
#X msg 229 87 1;
#X msg 271 87 0;
#X msg 324 87 1;
#X msg 366 87 0;
#X connect 1 0 2 0;
#X connect 2 0 0 0;
#X connect 2 1 6 0;
#X connect 3 0 5 0;
#X connect 4 0 13 0;
#X connect 5 0 4 0;
#X connect 6 0 2 2;
#X connect 7 0 6 1;
#X connect 8 0 6 2;
#X connect 9 0 10 0;
#X connect 10 0 6 0;
#X connect 11 0 6 0;
#X connect 12 0 11 0;
#X connect 13 0 2 1;
#X connect 13 0 14 0;
#X connect 14 0 7 0;
#X connect 14 1 8 0;
#X connect 14 2 15 0;
#X connect 14 3 16 0;
#X connect 15 0 17 0;
#X connect 15 1 18 0;
#X connect 16 0 19 0;
#X connect 16 1 20 0;
#X connect 17 0 12 0;
#X connect 18 0 12 0;
#X connect 19 0 9 0;
#X connect 20 0 9 0;
