#N canvas 606 159 899 737 12;
#X obj 51 239 outlet;
#X obj 52 183 inlet;
#N canvas 291 214 787 662 togglefx 0;
#X obj 89 290 outlet;
#X obj 36 37 inlet;
#X obj 124 68 route on off;
#X obj 121 172 spigot 1;
#X obj 32 245 spigot 0;
#X msg 127 94 0 1;
#X msg 165 94 1 0;
#X obj 126 121 unpack 0 0;
#X obj 124 37 inlet;
#X obj 189 297 outlet;
#X obj 237 27 inlet;
#X obj 299 58 loadbang;
#X connect 1 0 4 0;
#X connect 1 0 3 0;
#X connect 2 0 5 0;
#X connect 2 1 6 0;
#X connect 3 0 9 0;
#X connect 4 0 0 0;
#X connect 5 0 7 0;
#X connect 6 0 7 0;
#X connect 7 0 4 1;
#X connect 7 1 3 1;
#X connect 8 0 2 0;
#X connect 10 0 0 0;
#X connect 11 0 5 0;
#X restore 52 209 pd togglefx;
#X obj 109 -35 r message;
#X obj 109 17 route fx;
#X obj 109 -9 route v;
#X obj 109 39 route roll;
#X floatatom 224 188 5 0 0 2 roll - - 0;
#X obj 145 209 pix_roll;
#X msg 153 181 axis \$1;
#X obj 153 160 tgl 15 0 empty empty empty 0 -6 0 8 #fcfcfc #000000 #000000 0 1;
#X obj 158 76 route flip;
#X connect 1 0 2 0;
#X connect 2 0 0 0;
#X connect 2 1 8 0;
#X connect 3 0 5 0;
#X connect 4 0 6 0;
#X connect 5 0 4 0;
#X connect 6 0 2 1;
#X connect 6 0 7 0;
#X connect 6 0 11 0;
#X connect 7 0 8 1;
#X connect 8 0 2 2;
#X connect 9 0 8 0;
#X connect 10 0 9 0;
#X connect 11 0 10 0;
