#N canvas 1014 181 696 680 12;
#X obj 51 290 outlet;
#X obj 52 234 inlet;
#X obj 89 -37 r message;
#N canvas 291 214 787 662 togglefx 0;
#X obj 89 290 outlet;
#X obj 36 37 inlet;
#X obj 124 68 route on off;
#X obj 121 172 spigot 1;
#X obj 32 245 spigot 0;
#X msg 127 94 0 1;
#X msg 165 94 1 0;
#X obj 126 121 unpack 0 0;
#X obj 124 37 inlet;
#X obj 189 297 outlet;
#X obj 237 27 inlet;
#X obj 299 58 loadbang;
#X connect 1 0 4 0;
#X connect 1 0 3 0;
#X connect 2 0 5 0;
#X connect 2 1 6 0;
#X connect 3 0 9 0;
#X connect 4 0 0 0;
#X connect 5 0 7 0;
#X connect 6 0 7 0;
#X connect 7 0 4 1;
#X connect 7 1 3 1;
#X connect 8 0 2 0;
#X connect 10 0 0 0;
#X connect 11 0 5 0;
#X restore 52 260 pd togglefx;
#X obj 184 257 pix_flip;
#X obj 88 14 route fx;
#X obj 88 -13 route v;
#X obj 89 39 route flip;
#X msg 196 169 none;
#X msg 196 189 horizontal;
#X msg 196 209 vertical;
#X msg 196 229 both;
#X obj 187 133 sel 1 2 3 4;
#X floatatom 187 108 5 0 0 0 - - - 0;
#X obj 187 35 i;
#X obj 222 35 + 1;
#X obj 183 9 bng 19 250 50 0 empty empty empty 0 -10 0 12 #fcfcfc #000000 #000000;
#X obj 187 85 + 1;
#X obj 187 60 % 4;
#X connect 1 0 3 0;
#X connect 2 0 6 0;
#X connect 3 0 0 0;
#X connect 3 1 4 0;
#X connect 4 0 3 2;
#X connect 5 0 7 0;
#X connect 6 0 5 0;
#X connect 7 0 3 1;
#X connect 7 0 14 0;
#X connect 8 0 4 0;
#X connect 9 0 4 0;
#X connect 10 0 4 0;
#X connect 11 0 4 0;
#X connect 12 0 8 0;
#X connect 12 1 9 0;
#X connect 12 2 10 0;
#X connect 12 3 11 0;
#X connect 13 0 12 0;
#X connect 14 0 15 0;
#X connect 14 0 18 0;
#X connect 15 0 14 1;
#X connect 16 0 14 0;
#X connect 17 0 13 0;
#X connect 18 0 17 0;
