#N canvas 978 134 861 771 12;
#X obj 51 239 outlet;
#X obj 52 183 inlet;
#X obj 125 -14 r message;
#N canvas 291 214 787 662 togglefx 0;
#X obj 89 290 outlet;
#X obj 36 37 inlet;
#X obj 124 68 route on off;
#X obj 121 172 spigot 1;
#X obj 32 245 spigot 0;
#X msg 127 94 0 1;
#X msg 165 94 1 0;
#X obj 126 121 unpack 0 0;
#X obj 124 37 inlet;
#X obj 189 297 outlet;
#X obj 237 27 inlet;
#X obj 299 58 loadbang;
#X connect 1 0 4 0;
#X connect 1 0 3 0;
#X connect 2 0 5 0;
#X connect 2 1 6 0;
#X connect 3 0 9 0;
#X connect 4 0 0 0;
#X connect 5 0 7 0;
#X connect 6 0 7 0;
#X connect 7 0 4 1;
#X connect 7 1 3 1;
#X connect 8 0 2 0;
#X connect 10 0 0 0;
#X connect 11 0 5 0;
#X restore 52 209 pd togglefx;
#X obj 140 210 pix_gain;
#X floatatom 139 95 5 0 0 1 common - - 0;
#X msg 216 183 1 0.5 0;
#X msg 217 205 0 0.4 0.8 1;
#X msg 241 263 saturate \$1;
#X obj 246 233 tgl 18 0 empty empty empty 0 -9 0 10 #fcfcfc #000000 #000000 0 1;
#X obj 125 40 route fx;
#X obj 125 13 route v;
#X obj 123 69 route gain;
#X connect 1 0 3 0;
#X connect 2 0 11 0;
#X connect 3 0 0 0;
#X connect 3 1 4 0;
#X connect 4 0 3 2;
#X connect 5 0 4 1;
#X connect 6 0 4 2;
#X connect 7 0 4 2;
#X connect 8 0 4 0;
#X connect 9 0 8 0;
#X connect 10 0 12 0;
#X connect 11 0 10 0;
#X connect 12 0 3 1;
#X connect 12 0 5 0;
