#N canvas 606 159 1099 696 12;
#X obj 51 239 outlet;
#X obj 52 183 inlet;
#N canvas 291 214 787 662 togglefx 0;
#X obj 89 290 outlet;
#X obj 36 37 inlet;
#X obj 124 68 route on off;
#X obj 121 172 spigot 1;
#X obj 32 245 spigot 0;
#X msg 127 94 0 1;
#X msg 165 94 1 0;
#X obj 126 121 unpack 0 0;
#X obj 124 37 inlet;
#X obj 189 297 outlet;
#X obj 237 27 inlet;
#X obj 299 58 loadbang;
#X connect 1 0 4 0;
#X connect 1 0 3 0;
#X connect 2 0 5 0;
#X connect 2 1 6 0;
#X connect 3 0 9 0;
#X connect 4 0 0 0;
#X connect 5 0 7 0;
#X connect 6 0 7 0;
#X connect 7 0 4 1;
#X connect 7 1 3 1;
#X connect 8 0 2 0;
#X connect 10 0 0 0;
#X connect 11 0 5 0;
#X restore 52 209 pd togglefx;
#X obj 124 -70 r message;
#X obj 124 -18 route fx;
#X obj 124 -44 route v;
#X obj 124 7 route refraction;
#X floatatom 190 156 3 0.01 16 1 - - - 0;
#X msg 190 174 refract \$1;
#X msg 270 174 mag \$1;
#X floatatom 190 116 3 0 0 1 - - - 0;
#X floatatom 270 116 3 0 0 1 - - - 0;
#X msg 190 134 width \$1;
#X msg 270 134 height \$1;
#X obj 177 205 pix_refraction;
#X obj 270 155 tgl 15 0 empty empty empty 0 -6 0 8 #fcfcfc #000000 #000000 0 1;
#X floatatom 132 59 5 0 0 0 - - - 0;
#X floatatom 183 59 5 0 0 0 - - - 0;
#X floatatom 237 59 5 0 0 0 - - - 0;
#X obj 132 36 route width refract height;
#X obj 151 176 pix_2grey;
#X connect 1 0 2 0;
#X connect 2 0 0 0;
#X connect 2 1 20 0;
#X connect 3 0 5 0;
#X connect 4 0 6 0;
#X connect 5 0 4 0;
#X connect 6 0 2 1;
#X connect 6 0 19 0;
#X connect 7 0 8 0;
#X connect 8 0 14 0;
#X connect 9 0 14 0;
#X connect 10 0 12 0;
#X connect 11 0 13 0;
#X connect 12 0 14 0;
#X connect 13 0 14 0;
#X connect 14 0 2 2;
#X connect 15 0 9 0;
#X connect 16 0 10 0;
#X connect 17 0 7 0;
#X connect 18 0 11 0;
#X connect 19 0 16 0;
#X connect 19 1 17 0;
#X connect 19 2 18 0;
#X connect 20 0 14 0;
