#N canvas 985 284 617 548 12;
#X obj 51 239 outlet;
#X obj 52 183 inlet;
#N canvas 291 214 787 662 togglefx 0;
#X obj 89 290 outlet;
#X obj 36 37 inlet;
#X obj 124 68 route on off;
#X obj 121 172 spigot 1;
#X obj 32 245 spigot 0;
#X msg 127 94 0 1;
#X msg 165 94 1 0;
#X obj 126 121 unpack 0 0;
#X obj 124 37 inlet;
#X obj 189 297 outlet;
#X obj 237 27 inlet;
#X obj 299 58 loadbang;
#X connect 1 0 4 0;
#X connect 1 0 3 0;
#X connect 2 0 5 0;
#X connect 2 1 6 0;
#X connect 3 0 9 0;
#X connect 4 0 0 0;
#X connect 5 0 7 0;
#X connect 6 0 7 0;
#X connect 7 0 4 1;
#X connect 7 1 3 1;
#X connect 8 0 2 0;
#X connect 10 0 0 0;
#X connect 11 0 5 0;
#X restore 52 209 pd togglefx;
#X obj 144 208 pix_invert;
#X obj 144 183 tgl 19 0 empty empty empty 0 -10 0 12 #fcfcfc #000000 #000000 0 1;
#X obj 104 94 route invert;
#X obj 103 14 r message;
#X obj 103 66 route fx;
#X obj 103 40 route v;
#X obj 104 119 route on off;
#X msg 122 145 1;
#X msg 157 145 0;
#X connect 1 0 2 0;
#X connect 2 0 0 0;
#X connect 2 1 3 0;
#X connect 3 0 2 2;
#X connect 4 0 3 0;
#X connect 5 0 2 1;
#X connect 5 0 9 0;
#X connect 6 0 8 0;
#X connect 7 0 5 0;
#X connect 8 0 7 0;
#X connect 9 0 10 0;
#X connect 9 1 11 0;
#X connect 10 0 4 0;
#X connect 11 0 4 0;
